<svg xmlns="http://www.w3.org/2000/svg" viewBox="0 0 557.62 540.59"><defs><style>.cls-1{fill:#3a2224;}.cls-2{fill:#967171;}.cls-3{fill:#3f50a2;}.cls-4{fill:#705558;}.cls-5{fill:#af9393;}.cls-6{fill:#593739;}.cls-7{fill:#303030;}.cls-8{fill:#fff;}.cls-9{fill:#cad0e2;}.cls-10{fill:#433;}</style></defs><g id="Layer_2" data-name="Layer 2"><g id="Layer_3" data-name="Layer 3"><path class="cls-1" d="M218.32,392.05c-15,16.89-32.66,48.48,13.59,73.27A6.87,6.87,0,0,1,230,478.13c-10.27,2-25,5.19-46.19,10.11-70.6,16.39,168.56,78.93,133.44-27.1C300,409,275,390,257.63,382.81A34.91,34.91,0,0,0,218.32,392.05Z"/><path class="cls-2" d="M219.41,63.27a3.08,3.08,0,0,1-.5-1.18Q206.58-.27,195.85,0q-6.87.18-13.1,26.07A3.12,3.12,0,0,1,179,28.35c-11.29-2.9-51.19-10.5-72.95,19.54a3.06,3.06,0,0,1-2.37,1.26c-36.48,1.4-49.11,4-53.47,5.5a3.08,3.08,0,0,0-2,3.35C49.62,68.3,58.26,113.94,97,128.4a3.09,3.09,0,0,1,1.82,1.87c4.06,11.77,32.07,95.06,26.69,140.08,0,.24-.37.58-.16.69,25,13.31-6.43,126.46,117.54,191.29,0,0,128.88,61.37,163.66-10.91C440.51,380.86,229.48,77.67,219.41,63.27Z"/><rect class="cls-3" x="6.34" y="153.48" width="83.53" height="117.63" rx="12" transform="translate(65.6 429.27) rotate(-171.84)"/><path class="cls-4" d="M402.72,390.52s71,13.16,61.8-61.5,14.49-86.77,47.56-75.69c14.24,8.95,44,9.71,45.52,107.91S461.72,521,393.31,469.49,402.72,390.52,402.72,390.52Z"/><path class="cls-5" d="M69.84,108.71a25.71,25.71,0,0,1-2.19-2.36c-15.91-20-19.68-46.91-19.9-49.5a3.17,3.17,0,0,1,2-3.35c5.79-2,19-2.36,21.3-2.39l.75,0c12.36-.93,15.75-1.15,30.94-2a12.47,12.47,0,0,1,4.26.47c33.37,10,95.71,121.64,53,114.31-4.26-.73-38.18-12.47-59.76-33.35A13.08,13.08,0,0,0,96,127.72C79.7,121.28,72.93,111.67,69.84,108.71Z"/><path class="cls-6" d="M277.41,411.14c-15,16.89-32.66,48.49,13.59,73.27a6.88,6.88,0,0,1-1.91,12.82c-10.27,2-25,5.19-46.19,10.1-70.6,16.4,168.56,78.94,133.44-27.09-17.28-52.17-42.22-71.19-59.62-78.34A34.94,34.94,0,0,0,277.41,411.14Z"/><path class="cls-6" d="M160.76,274.81,80.47,217s-25.93-19.72-16.88,21.48C75.35,292,164.13,324.38,168.43,316.74Z"/><path class="cls-7" d="M55.57,85.88c-7.85-18.71-7.59-26.37-7.82-29a3.17,3.17,0,0,1,2-3.35c4.36-1.54,11.84-2,21.65-2.4"/><path class="cls-1" d="M464.35,278.31s58.71-26.62,87.4,25.51c0,0,4.14,24.09,4.68,31.94-12.13-3.33-45.25-42.62-93.64-25.87C462.79,309.89,463.35,282.63,464.35,278.31Z"/><path class="cls-1" d="M465.53,341.77s63.32-25.67,92,26.46c0,0-1.68,22.38-4.28,30.07-12.13-3.34-47.9-42.12-96.3-25.37C457.61,374.83,465.63,354.59,465.53,341.77Z"/><path class="cls-1" d="M445.41,383.77c1.58,10.48,51.14,42.31,94.15,47.75,0,0-21.4,31.6-32.93,36.31-16.11,5.49-89.84-42.67-89.19-76.47C420.48,391.55,439.37,388.51,445.41,383.77Z"/><path class="cls-1" d="M402.72,390.52c-13.55,35.5,38.53,91.77,63.84,96.12,0,0-34.58,6.24-53.78-5.78C387.29,470,364.9,440,366.58,419.21c.6-7.34,4.4-12,9.44-16C388.35,393.53,394.46,391.2,402.72,390.52Z"/><path class="cls-1" d="M160.65,25.46a11.79,11.79,0,0,1,10.69,9c4.74,19.93,17.24,71.2,24.18,88.5,8.7,21.65-107-52.39-90-74.6C113,38.66,127.89,23.23,160.65,25.46Z"/><ellipse cx="150.5" cy="69.39" rx="10.93" ry="18.54"/><g id="ID"><path class="cls-8" d="M27.62,183.76q8.52-2.76,17.21-4.91A2.5,2.5,0,1,0,43.5,174q-8.69,2.15-17.21,4.91A2.56,2.56,0,0,0,24.55,182a2.51,2.51,0,0,0,3.07,1.74Z"/><path class="cls-8" d="M34.7,180.6a8.54,8.54,0,0,1,1.11,3.46,30,30,0,0,1,.14,4.45c-.05,3.2-.15,6.44.81,9.53a2.55,2.55,0,0,0,3.08,1.74,2.53,2.53,0,0,0,1.74-3.07c-.94-3-.61-6.26-.61-9.48,0-3.57-.45-7.28-2.73-10.16a2.52,2.52,0,0,0-3.54,0,2.55,2.55,0,0,0,0,3.53Z"/><path class="cls-8" d="M32.27,202.67a172.19,172.19,0,0,0,17.39-5.09,2.56,2.56,0,0,0,1.74-3.08,2.52,2.52,0,0,0-3.07-1.74,172.19,172.19,0,0,1-17.39,5.09,2.5,2.5,0,0,0,1.33,4.82Z"/><path class="cls-8" d="M52.93,189.54c1,6.4,1.61,13.12,4.32,19.09a2.52,2.52,0,0,0,3.42.9,2.56,2.56,0,0,0,.9-3.42,34.23,34.23,0,0,1-2.25-8.33c-.56-3.19-1-6.38-1.57-9.57a2.51,2.51,0,0,0-3.07-1.75,2.56,2.56,0,0,0-1.75,3.08Z"/><path class="cls-8" d="M57.17,191.27a15.88,15.88,0,0,1,6.54,2.39,11.76,11.76,0,0,1,2.62,2.24,7.76,7.76,0,0,1,.78,1.16c.2.35.08.08.19.44a5.44,5.44,0,0,1,.15.54c0-.17,0-.16,0,0a3,3,0,0,1,0,.42c0,.29,0,.36,0,.22s-.3.76-.14.41a5.74,5.74,0,0,1-.73,1.15,13.88,13.88,0,0,1-2.27,2.27q-.35.24-.72.45c-.1.06-.74.35-.55.27a5,5,0,0,1-1.31.3,10.73,10.73,0,0,0-4.36,1,2.5,2.5,0,1,0,2.52,4.32,4,4,0,0,1,1.54-.32,15,15,0,0,0,2.41-.34,10.92,10.92,0,0,0,4.28-2.39c2.31-2,4.63-4.86,4.3-8.06-.35-3.44-2.77-6-5.46-7.94a19.39,19.39,0,0,0-8.46-3.39,2.58,2.58,0,0,0-3.07,1.75,2.51,2.51,0,0,0,1.74,3.07Z"/></g><ellipse class="cls-9" cx="145.79" cy="63.97" rx="4.71" ry="6.82"/><path class="cls-10" d="M182.85,27.09s4.57-18.42,11.73-20.57,12.5,43.71,12.5,43.71S193.07,46.19,182.85,27.09Z"/></g></g></svg>