<svg xmlns="http://www.w3.org/2000/svg" viewBox="0 0 557.62 540.59"><defs><style>.cls-1{fill:#3a2224;}.cls-2{fill:#967171;}.cls-3{fill:#3f50a2;}.cls-4{fill:#705558;}.cls-5{fill:#af9393;}.cls-6{fill:#593739;}.cls-7{fill:#303030;}.cls-8{fill:#fff;}.cls-9{fill:#433;}.cls-10{fill:#cad0e2;}</style></defs><g id="Layer_2" data-name="Layer 2"><g id="Layer_1-2" data-name="Layer 1"><path class="cls-1" d="M339.29,392.05c15,16.89,32.67,48.48-13.59,73.27a6.88,6.88,0,0,0,1.91,12.81c10.28,2,25,5.19,46.19,10.11,70.6,16.39-168.56,78.93-133.44-27.1C257.64,409,282.59,390,300,382.81A34.9,34.9,0,0,1,339.29,392.05Z"/><path class="cls-2" d="M338.21,63.27a3.42,3.42,0,0,0,.5-1.18Q351-.27,361.76,0q6.89.18,13.11,26.07a3.11,3.11,0,0,0,3.78,2.28c11.3-2.9,51.2-10.5,73,19.54A3.06,3.06,0,0,0,454,49.15c36.47,1.4,49.1,4,53.46,5.5a3.08,3.08,0,0,1,2,3.35c-1.47,10.3-10.12,55.94-48.86,70.4a3.06,3.06,0,0,0-1.82,1.87c-4.06,11.77-32.07,95.06-26.7,140.08,0,.24.38.58.17.69-25,13.31,6.42,126.46-117.55,191.29,0,0-128.88,61.37-163.65-10.91C117.11,380.86,328.14,77.67,338.21,63.27Z"/><rect class="cls-3" x="467.74" y="153.48" width="83.53" height="117.63" rx="12" transform="translate(-24.98 74.48) rotate(-8.16)"/><path class="cls-4" d="M154.89,390.52s-71,13.16-61.79-61.5-14.49-86.77-47.57-75.69C31.3,262.28,1.55,263,0,361.24S95.9,521,164.31,469.49,154.89,390.52,154.89,390.52Z"/><path class="cls-5" d="M487.77,108.71a24.38,24.38,0,0,0,2.19-2.36c15.92-20,19.68-46.91,19.91-49.5a3.18,3.18,0,0,0-2-3.35c-5.79-2-19-2.36-21.3-2.39l-.76,0c-12.36-.93-15.75-1.15-30.94-2a12.52,12.52,0,0,0-4.26.47c-33.37,10-95.71,121.64-53,114.31,4.26-.73,38.18-12.47,59.76-33.35a13.12,13.12,0,0,1,4.3-2.79C477.91,121.28,484.68,111.67,487.77,108.71Z"/><path class="cls-6" d="M280.2,411.14c15,16.89,32.67,48.49-13.59,73.27a6.88,6.88,0,0,0,1.91,12.82c10.28,2,25,5.19,46.19,10.1,70.6,16.4-168.56,78.94-133.44-27.09,17.28-52.17,42.23-71.19,59.62-78.34A34.93,34.93,0,0,1,280.2,411.14Z"/><path class="cls-6" d="M396.85,274.81l80.3-57.8s25.93-19.72,16.87,21.48C482.26,292,393.49,324.38,389.18,316.74Z"/><path class="cls-7" d="M502.05,85.88c7.85-18.71,7.59-26.37,7.82-29a3.18,3.18,0,0,0-2-3.35c-4.36-1.54-11.84-2-21.66-2.4"/><path class="cls-1" d="M93.27,278.31s-58.71-26.62-87.4,25.51c0,0-4.14,24.09-4.68,31.94,12.12-3.33,45.24-42.62,93.63-25.87C94.82,309.89,94.26,282.63,93.27,278.31Z"/><path class="cls-1" d="M92.08,341.77S28.77,316.1.08,368.23c0,0,1.67,22.38,4.28,30.07,12.13-3.34,47.9-42.12,96.29-25.37C100,374.83,92,354.59,92.08,341.77Z"/><path class="cls-1" d="M112.2,383.77c-1.57,10.48-51.14,42.31-94.14,47.75,0,0,21.39,31.6,32.93,36.31,16.11,5.49,89.84-42.67,89.18-76.47C137.14,391.55,118.24,388.51,112.2,383.77Z"/><path class="cls-1" d="M154.89,390.52c13.56,35.5-38.52,91.77-63.84,96.12,0,0,34.58,6.24,53.79-5.78C170.32,470,192.72,440,191,419.21c-.59-7.34-4.4-12-9.44-16C169.26,393.53,163.16,391.2,154.89,390.52Z"/><path class="cls-1" d="M397,25.46a11.78,11.78,0,0,0-10.68,9C381.53,54.4,369,105.67,362.09,123c-8.69,21.65,107-52.39,90-74.6C444.59,38.66,429.72,23.23,397,25.46Z"/><ellipse cx="407.11" cy="69.39" rx="10.93" ry="18.54"/><g id="ID"><path class="cls-8" d="M489,182q8.72-2,17.57-3.41a2.52,2.52,0,0,0,1.74-3.08,2.55,2.55,0,0,0-3.07-1.74q-8.85,1.38-17.57,3.41A2.5,2.5,0,1,0,489,182Z"/><path class="cls-8" d="M495.88,179.13c1.51,2.3,1.1,5.65.82,8.38-.33,3.27-.69,6.47,0,9.72a2.5,2.5,0,1,0,4.82-1.32c-.65-3,0-6.29.25-9.37.29-3.28.28-7.08-1.6-9.93a2.56,2.56,0,0,0-3.42-.9,2.53,2.53,0,0,0-.89,3.42Z"/><path class="cls-8" d="M492,201.21a170.21,170.21,0,0,0,17.76-3.58,2.5,2.5,0,0,0-1.32-4.82,170.73,170.73,0,0,1-17.76,3.58,2.51,2.51,0,0,0-1.75,3.07,2.55,2.55,0,0,0,3.07,1.75Z"/><path class="cls-8" d="M513.48,189.49c.24,3.31.46,6.61.75,9.91a38.66,38.66,0,0,0,1.8,9.54,2.55,2.55,0,0,0,3.07,1.74,2.52,2.52,0,0,0,1.75-3.07,34.14,34.14,0,0,1-1.65-8.55c-.27-3.18-.49-6.38-.72-9.57A2.57,2.57,0,0,0,516,187a2.51,2.51,0,0,0-2.5,2.5Z"/><path class="cls-8" d="M517.8,192.11a15.14,15.14,0,0,1,6.08,2.85,14.91,14.91,0,0,1,2.2,2.14,8,8,0,0,1,.88,1.46,4.28,4.28,0,0,1,.28,1.2,1.52,1.52,0,0,1-.19.89,4.4,4.4,0,0,1-.92,1.19,11.17,11.17,0,0,1-2.46,2,4.92,4.92,0,0,1-2.81.76,10.81,10.81,0,0,0-4.4.76,2.52,2.52,0,0,0-.9,3.42,2.57,2.57,0,0,0,3.42.9c-.14.09-.07.08.22,0-.2,0-.13,0,.19,0a11.55,11.55,0,0,1,1.18,0,13,13,0,0,0,2.41-.19,10.24,10.24,0,0,0,4.15-1.88c2.61-1.92,5.29-4.61,5.1-8.1-.17-3.28-2.38-6.08-4.84-8.08a20.41,20.41,0,0,0-8.26-4.11,2.5,2.5,0,1,0-1.33,4.82Z"/></g><path class="cls-9" d="M374.76,27.09S370.2,8.67,363,6.52s-12.5,43.71-12.5,43.71S364.55,46.19,374.76,27.09Z"/><ellipse class="cls-10" cx="411.83" cy="63.97" rx="4.71" ry="6.82"/></g></g></svg>