<svg xmlns="http://www.w3.org/2000/svg" viewBox="0 0 785 949.99"><defs><style>.cls-1{fill:#705558;}.cls-2{fill:#967171;}.cls-3{fill:#af9393;}.cls-4{fill:#3a2224;}.cls-5{fill:#433;}.cls-6{fill:none;stroke:#000;}.cls-10,.cls-6{stroke-miterlimit:10;}.cls-7{fill:#cad0e2;}.cls-8{fill:#593739;}.cls-9{fill:#c14527;}.cls-10{fill:#3c2415;stroke:#c14527;}.cls-11{fill:#2f1412;}</style></defs><g id="Layer_2" data-name="Layer 2"><g id="Layer_4" data-name="Layer 4"><path class="cls-1" d="M620.38,539.59s116-132.87,151.09-80.82,2.92,165.78-109.14,213.34S620.38,539.59,620.38,539.59Z"/><path class="cls-2" d="M84.48,203.53s-95.42-365.87,120-67.46c52.7-16.92,175.28-27.33,239.44-2.61,0,0,79.24-118.41,121.63-132.72s26.16,183.47,26.16,183.47-6.95,60.29,80.88,96.72c9.54,51.62-33.9,149.75-77.91,220.77,11.92,36.44,107.94,149.1,59.83,366.4-41.25,95-481.53,109.74-502.15,31.66s-52.13-44.13-34.95-321.28c0,0-137.23-78.3-114.92-227.49C87.7,307.83,51.59,255.21,84.48,203.53Z"/><path class="cls-3" d="M43.92,511s246.37-29.41,294.87-91.87c0,0,205.19,35.48,311.29-25.85C601.76,490,603.81,552.45,374.74,579.13,241.6,594.63,112.41,627.55,43.92,511Z"/><path class="cls-4" d="M57.4,344.12c39.85-49.56,52.11-133.24,217.85-128,119.85,3.78-.23,146.67-75.92,225.51C159.7,482.89,94,483.21,55.08,441.23,33.05,417.48,24.32,385.26,57.4,344.12Z"/><path class="cls-4" d="M603.15,290.6C558.47,252.8,532.79,179.35,383.81,213c-107.72,24.34,25.79,132.43,108,190.43,43,30.36,102.52,19.17,130.39-25.54C638,352.61,640.24,322,603.15,290.6Z"/><ellipse cx="227.28" cy="295.15" rx="71.14" ry="32.94" transform="translate(-82.26 502.39) rotate(-86.21)"/><rect x="299.15" y="409.75" width="89.36" height="52.79" rx="12" transform="translate(-76.45 73.1) rotate(-10.93)"/><path class="cls-5" d="M108.39,163c1.1,4.8,5.46,7.62,9.65,6.23,13.42-4.44,40.69-14.19,49.66-22.71C180.18,134.62,112.71,58,99,63.2,87.66,67.48,102.68,138,108.39,163Z"/><path class="cls-5" d="M563.92,147.65c-.91,5.4-5.76,9-10.73,7.86-15.92-3.5-48.3-11.4-59.37-19.86-15.38-11.76,57.06-103.15,73.41-98.84C580.67,40.35,568.63,119.57,563.92,147.65Z"/><path class="cls-6" d="M351.9,461.47s18,69.48,1.77,95.75"/><path class="cls-6" d="M360.57,524.77s.62,15.39,17.07,29.63"/><ellipse class="cls-7" cx="237.53" cy="293.19" rx="27.14" ry="14.76" transform="translate(-70.73 510.79) rotate(-86.21)"/><ellipse cx="450.85" cy="280.13" rx="32.94" ry="71.14" transform="translate(-4.7 7.71) rotate(-0.97)"/><ellipse class="cls-7" cx="440.71" cy="277.67" rx="14.76" ry="27.14" transform="translate(-4.66 7.54) rotate(-0.97)"/><path class="cls-8" d="M128.72,841.1S264.49,777,285.31,745.73C304,717.64,155.07,619.91,124.91,600.54c-3.37-2.17-3.87-4.07-5.26-3.36C65.36,625,106.81,806.34,128.72,841.1Z"/><path class="cls-9" d="M469.76,672.11c9.87,94.08-57.59,90.66-57.59,90.66S348.48,779.39,337,686"/><path class="cls-9" d="M470.39,679.64s25.24-5.69,24,14.31-24.74,12.78-24.74,12.78l.36-8.38s10.44,1.45,11.4-5.26-10.6-3.75-10.6-3.75Z"/><ellipse class="cls-10" cx="403.39" cy="679.07" rx="66.73" ry="19.36" transform="translate(-68.64 45.78) rotate(-5.99)"/><path class="cls-8" d="M657.34,768.53S510.75,736,483.53,710.17c-24.47-23.25,93.91-147.34,119-172.91,2.81-2.86,2.87-4.8,4.39-4.44C665.54,546.9,671,729.79,657.34,768.53Z"/><path class="cls-11" d="M373.6,683.92c1.2,8.1,20.37,12,42.82,8.67s39.69-12.56,38.5-20.66-20.37-12-42.82-8.67c-6.53,1-11.38,10-16.7,11.82C382.41,679.45,372.76,678.18,373.6,683.92Z"/><path class="cls-4" d="M641.23,517.43l71.31,125.38s8.87-8.62,23.24-21.07c18-24.27-22.41-119.27-74.86-123.28A248.77,248.77,0,0,0,641.23,517.43Z"/><path class="cls-4" d="M702.78,465s72.36,17.48,70.45,99.48A139.84,139.84,0,0,0,783.34,529s-3-85.36-60.85-75.34A39.67,39.67,0,0,0,702.78,465Z"/></g></g></svg>